<svg width="24.000000" height="24.000000" viewBox="0 0 24 24" fill="none" xmlns="http://www.w3.org/2000/svg" xmlns:xlink="http://www.w3.org/1999/xlink">

	<defs/>
	<circle id="Ellipse 9" cx="12.000000" cy="12.000000" r="12.000000" fill="#7B6EF6" fill-opacity="1.000000"/>
	<path id="2" d="M11.5 12.91Q10.7 13.66 9.35 14.78L8.62 15.4L8.62 16.85L15.54 16.85L15.54 15.23L11.41 15.23Q12.63 14.2 13.39 13.46Q14.14 12.73 14.73 11.73Q15.14 11.03 15.27 10.28Q15.32 9.97 15.32 9.65Q15.32 8.63 14.86 7.9Q14.69 7.64 14.46 7.41Q14.4 7.35 14.34 7.3Q13.5 6.56 12.01 6.56Q10.95 6.56 10.16 7.03Q9.87 7.2 9.61 7.43Q9.53 7.51 9.45 7.59Q8.66 8.45 8.61 9.98L10.51 9.98Q10.53 9.17 10.91 8.7Q11.02 8.56 11.17 8.46Q11.5 8.23 11.98 8.23Q12.58 8.23 12.92 8.53Q12.97 8.58 13.02 8.64Q13.36 9.04 13.36 9.76Q13.36 10.54 12.82 11.36Q12.29 12.17 11.5 12.91Z" fill="#FFFFFF" fill-opacity="1.000000" fill-rule="evenodd"/>
</svg>
