<svg width="20.739502" height="20.202026" viewBox="0 0 20.7395 20.202" fill="none" xmlns="http://www.w3.org/2000/svg" xmlns:xlink="http://www.w3.org/1999/xlink">
	<defs/>
	<path id="Vector" d="M5.85 16.45L8.95 18.85C9.35 19.25 10.25 19.45 10.85 19.45L14.65 19.45C15.85 19.45 17.15 18.55 17.45 17.35L19.85 10.05C20.35 8.65 19.45 7.45 17.95 7.45L13.95 7.45C13.35 7.45 12.85 6.95 12.95 6.25L13.45 3.05C13.65 2.15 13.05 1.15 12.15 0.85C11.35 0.55 10.35 0.95 9.95 1.55L5.85 7.65" stroke="#8E95A9" stroke-opacity="1.000000" stroke-width="1.500000"/>
	<path id="Vector" d="M0.75 6.65C0.75 5.25 1.35 4.75 2.75 4.75L3.75 4.75C5.14 4.75 5.75 5.25 5.75 6.65L5.75 16.45C5.75 17.85 5.14 18.35 3.75 18.35L2.75 18.35C1.35 18.35 0.75 17.85 0.75 16.45L0.75 6.65Z" stroke="#8E95A9" stroke-opacity="1.000000" stroke-width="1.500000" stroke-linejoin="round"/>
</svg>
